<svg ed:name="Page-1" xmlns:xlink="http://www.w3.org/1999/xlink" xmlns:ev="http://www.w3.org/2001/xml-events" id="page100" viewBox="0 0 895 281" xmlns="http://www.w3.org/2000/svg" width="895" height="281" ed:hSpacing="30" xmlns:ed="https://www.edrawsoft.cn//xml/2017/SVGExtensions/" ed:vSpacing="30"><style type="text/css"><![CDATA[
g[ed\:togtopicid],g[ed\:hyperlink],g[ed\:comment],g[ed\:note] {cursor:pointer;}
g[id] {-moz-user-select: none;-ms-user-select: none;user-select: none;}
svg text::selection,svg tspan::selection{background-color: #4285f4;color: #ffffff;fill: #ffffff;}
.st2 {fill:#303030;font-family:Sans Serif;font-size:11pt}
.st3 {fill:#454545;font-family:Sans Serif;font-size:8.78pt}
.st4 {fill:#454545;font-family:Sans Serif;font-size:9pt}
.st1 {fill:#ffffff;font-family:Sans Serif;font-size:14pt}
]]></style><defs><linearGradient x1="0%" y1="0%" id="lg1" y2="100%" x2="0%"><stop stop-color="#ffffff" offset="0"/><stop stop-color="#f0f5f0" offset="0.25"/><stop stop-color="#e1ebe1" offset="0.75"/><stop stop-color="#c8d7c8" offset="1"/></linearGradient></defs><rect fill="#ffffff" x="0" width="895" height="281" y="0"/><path stroke="#696969" fill="none" transform="matrix(1,0,0,1,278.3,121.5)" ed:parentid="101" id="107" d="M43.1,-9.3C63.1,-13.8,83.5,-17,106.1,-17" ed:tosuperid="106" stroke-linejoin="round" stroke-linecap="round"/><path stroke="#696969" fill="none" transform="matrix(1,0,0,1,643.91,114.25)" ed:parentid="349" id="109" d="M-13.5,0C-2.7,0,5.4,0,13.5,0" ed:tosuperid="108" stroke-linejoin="round" stroke-linecap="round"/><path stroke="#696969" fill="none" transform="matrix(1,0,0,1,278.3,155.5)" ed:parentid="101" id="111" d="M43.1,9.3C63.1,13.8,83.5,17,106.1,17" ed:tosuperid="110" stroke-linejoin="round" stroke-linecap="round"/><path stroke="#696969" fill="none" transform="matrix(1,0,0,1,679.59,182.25)" ed:parentid="351" id="113" d="M-13.5,0C-2.7,0,5.4,0,13.5,0" ed:tosuperid="112" stroke-linejoin="round" stroke-linecap="round"/><path stroke="#696969" fill="none" transform="matrix(1,0,0,1,278.3,189.5)" ed:parentid="101" id="116" d="M-25.5,-22.5C15.5,7.7,46.4,51,106.1,51" ed:tosuperid="115" stroke-linejoin="round" stroke-linecap="round"/><path stroke="#696969" fill="none" transform="matrix(1,0,0,1,496.91,245.38)" ed:parentid="115" id="327" d="M-13.5,-4.9C-1.6,-4.9,2.7,4.9,13.5,4.9" ed:tosuperid="326" stroke-linejoin="round" stroke-linecap="round"/><path stroke="#696969" fill="none" transform="matrix(1,0,0,1,622.66,250.25)" ed:parentid="326" id="333" d="M-13.5,0C-2.7,0,5.4,0,13.5,0" ed:tosuperid="330" stroke-linejoin="round" stroke-linecap="round"/><path stroke="#696969" fill="none" transform="matrix(1,0,0,1,278.3,87.5)" ed:parentid="101" id="337" d="M-25.5,22.5C15.5,-7.7,46.4,-51,106.1,-51" ed:tosuperid="335" stroke-linejoin="round" stroke-linecap="round"/><path stroke="#696969" fill="none" transform="matrix(1,0,0,1,601.91,41.38)" ed:parentid="335" id="341" d="M-13.5,-4.9C-1.6,-4.9,2.7,4.9,13.5,4.9" ed:tosuperid="340" stroke-linejoin="round" stroke-linecap="round"/><path stroke="#696969" fill="none" transform="matrix(1,0,0,1,721.78,46.25)" ed:parentid="340" id="345" d="M-13.5,0C-2.7,0,5.4,0,13.5,0" ed:tosuperid="344" stroke-linejoin="round" stroke-linecap="round"/><path stroke="#696969" fill="none" transform="matrix(1,0,0,1,524.28,109.38)" ed:parentid="106" id="350" d="M-13.5,-4.9C-1.6,-4.9,2.7,4.9,13.5,4.9" ed:tosuperid="349" stroke-linejoin="round" stroke-linecap="round"/><path stroke="#696969" fill="none" transform="matrix(1,0,0,1,541.91,177.38)" ed:parentid="110" id="352" d="M-13.5,-4.9C-1.6,-4.9,2.7,4.9,13.5,4.9" ed:tosuperid="351" stroke-linejoin="round" stroke-linecap="round"/><g transform="matrix(1,0,0,1,23,110)" ed:width="298.406" ed:topictype="mainidea" id="101" ed:height="57" ed:layout="rightmap"><path fill="#a64a7b" stroke="#a64a7b" d="M4,0L294.4,0C297.1,0,298.4,1.3,298.4,4L298.4,53C298.4,55.7,297.1,57,294.4,57L4,57C1.3,57,0,55.7,0,53L0,4C0,1.3,1.3,0,4,0z" stroke-width="3" stroke-linejoin="round"/><text class="st1"><tspan x="12" style="white-space:pre" y="33.1">vins_node(rosNodeTest.cpp)</tspan></text></g><g transform="matrix(1,0,0,1,384.41,87)" ed:parentid="101" ed:width="126.375" id="106" ed:height="35"><path fill="#fffafc" stroke="#fffafc" d="M4,0L122.4,0C125.1,0,126.4,1.3,126.4,4L126.4,31C126.4,33.7,125.1,35,122.4,35L4,35C1.3,35,0,33.7,0,31L0,4C0,1.3,1.3,0,4,0z" stroke-linejoin="round"/><text class="st2"><tspan x="17" style="white-space:pre" y="23.1">IMU数据输入</tspan></text></g><g transform="matrix(1,0,0,1,657.41,94.75)" ed:parentid="349" ed:width="126.047" id="108" ed:height="19.5"><path stroke="#696969" fill="none" d="M0,19.5L126,19.5" stroke-linejoin="round"/><text class="st3"><tspan x="4" style="white-space:pre" y="12.3">estimator.inputIMU</tspan></text></g><g transform="matrix(1,0,0,1,384.41,155)" ed:parentid="101" ed:width="144" id="110" ed:height="35"><path fill="#fffafc" stroke="#fffafc" d="M4,0L140,0C142.7,0,144,1.3,144,4L144,31C144,33.7,142.7,35,140,35L4,35C1.3,35,0,33.7,0,31L0,4C0,1.3,1.3,0,4,0z" stroke-linejoin="round"/><text class="st2"><tspan x="18" style="white-space:pre" y="23.1">特征点数据输入</tspan></text></g><g transform="matrix(1,0,0,1,693.09,162.75)" ed:parentid="351" ed:width="146.563" id="112" ed:height="19.5"><path stroke="#696969" fill="none" d="M0,19.5L146.6,19.5" stroke-linejoin="round"/><text class="st4"><tspan x="3" style="white-space:pre" y="12.3">estimator.inputFeature</tspan></text></g><g transform="matrix(1,0,0,1,384.41,223)" ed:parentid="101" ed:width="99" id="115" ed:height="35"><path fill="#fffafc" stroke="#fffafc" d="M4,0L95,0C97.7,0,99,1.3,99,4L99,31C99,33.7,97.7,35,95,35L4,35C1.3,35,0,33.7,0,31L0,4C0,1.3,1.3,0,4,0z" stroke-linejoin="round"/><text class="st2"><tspan x="18" style="white-space:pre" y="23.1">图片输入</tspan></text></g><g transform="matrix(1,0,0,1,510.41,230.75)" ed:parentid="115" ed:width="98.75" id="326" ed:height="19.5"><path stroke="#696969" fill="none" d="M0,19.5L98.8,19.5" stroke-linejoin="round"/><text class="st4"><tspan x="5" style="white-space:pre" y="12.3">img1_callback</tspan></text></g><g transform="matrix(1,0,0,1,636.16,230.75)" ed:parentid="326" ed:width="160.969" id="330" ed:height="19.5"><path stroke="#696969" fill="none" d="M0,19.5L161,19.5" stroke-linejoin="round"/><text class="st4"><tspan x="3" style="white-space:pre" y="12.3">img1_buf.push(img_msg)</tspan></text></g><g transform="matrix(1,0,0,1,384.41,19)" ed:parentid="101" ed:width="204" id="335" ed:height="35"><path fill="#fffafc" stroke="#fffafc" d="M4,0L200,0C202.7,0,204,1.3,204,4L204,31C204,33.7,202.7,35,200,35L4,35C1.3,35,0,33.7,0,31L0,4C0,1.3,1.3,0,4,0z" stroke-linejoin="round"/><text class="st2"><tspan x="18" style="white-space:pre" y="23.1">双目时间对齐并处理图像</tspan></text></g><g transform="matrix(1,0,0,1,615.41,26.75)" ed:parentid="335" ed:width="92.875" id="340" ed:height="19.5"><path stroke="#696969" fill="none" d="M0,19.5L92.9,19.5" stroke-linejoin="round"/><text class="st4"><tspan x="5" style="white-space:pre" y="12.3">sync_process</tspan></text></g><g transform="matrix(1,0,0,1,735.28,26.75)" ed:parentid="340" ed:width="138.75" id="344" ed:height="19.5"><path stroke="#696969" fill="none" d="M0,19.5L138.8,19.5" stroke-linejoin="round"/><text class="st4"><tspan x="3" style="white-space:pre" y="12.3">estimator.inputImage</tspan></text></g><g transform="matrix(1,0,0,1,537.78,94.75)" ed:parentid="106" ed:width="92.625" id="349" ed:height="19.5"><path stroke="#696969" fill="none" d="M0,19.5L92.6,19.5" stroke-linejoin="round"/><text class="st4"><tspan x="6" style="white-space:pre" y="12.3">imu_callback</tspan></text></g><g transform="matrix(1,0,0,1,555.41,162.75)" ed:parentid="110" ed:width="110.688" id="351" ed:height="19.5"><path stroke="#696969" fill="none" d="M0,19.5L110.7,19.5" stroke-linejoin="round"/><text class="st4"><tspan x="5" style="white-space:pre" y="12.3">feature_callback</tspan></text></g><g transform="translate(322,133)" ed:togtopicid="101"><use xlink:href="#minus"/></g><g transform="translate(512,99)" ed:togtopicid="106"><use xlink:href="#minus"/></g><g transform="translate(529,167)" ed:togtopicid="110"><use xlink:href="#minus"/></g><g transform="translate(484,235)" ed:togtopicid="115"><use xlink:href="#minus"/></g><g transform="translate(610,235)" ed:togtopicid="326"><use xlink:href="#minus"/></g><g transform="translate(589,31)" ed:togtopicid="335"><use xlink:href="#minus"/></g><g transform="translate(709,31)" ed:togtopicid="340"><use xlink:href="#minus"/></g><g transform="translate(631,99)" ed:togtopicid="349"><use xlink:href="#minus"/></g><g transform="translate(667,167)" ed:togtopicid="351"><use xlink:href="#minus"/></g><symbol id="plus"><path fill="url(#lg1)" d="M11,6C11,8.8,8.8,11,6,11C3.2,11,1,8.8,1,6C1,3.2,3.2,1,6,1C8.8,1,11,3.2,11,6z"/><path fill="none" stroke="#46a000" d="M11,6C11,8.8,8.8,11,6,11C3.2,11,1,8.8,1,6C1,3.2,3.2,1,6,1C8.8,1,11,3.2,11,6zM3,6L9,6M6,3L6,9" stroke-width="0.7"/></symbol><symbol id="minus"><path fill="url(#lg1)" d="M11,6C11,8.8,8.8,11,6,11C3.2,11,1,8.8,1,6C1,3.2,3.2,1,6,1C8.8,1,11,3.2,11,6z"/><path fill="none" stroke="#46a000" d="M11,6C11,8.8,8.8,11,6,11C3.2,11,1,8.8,1,6C1,3.2,3.2,1,6,1C8.8,1,11,3.2,11,6zM3,6L9,6" stroke-width="0.7"/></symbol></svg>